<svg width="19" height="11" viewBox="0 0 19 11" fill="none" xmlns="http://www.w3.org/2000/svg">
<path d="M18.3353 2.64508C18.5632 2.41981 18.6875 2.14557 18.6875 1.83215C18.6875 1.17593 18.1489 0.666627 17.4653 0.666626C17.1235 0.666626 16.8127 0.793953 16.5745 1.01922L9.48964 7.87525L2.42552 1.01922C2.18729 0.793951 1.86619 0.666625 1.53474 0.666624C0.851114 0.666624 0.312501 1.17593 0.312501 1.83215C0.312501 2.14557 0.436796 2.41981 0.664671 2.63528L8.53671 10.2553C8.80602 10.5295 9.13747 10.6666 9.5 10.6666C9.86253 10.6666 10.1733 10.5295 10.4529 10.2651L18.3353 2.64508Z" fill="#E9E9F3"/>
</svg>
