<svg width="60" height="42" viewBox="0 0 60 42" fill="none" xmlns="http://www.w3.org/2000/svg">
<circle cx="44" cy="16" r="16" fill="#FFCB4C" fill-opacity="0.8"/>
<path d="M27.9995 10.001C34.4494 10.001 40.0075 13.8176 42.5396 19.3154C44.1777 18.4767 46.0327 18.001 47.9995 18.001C54.6268 18.001 59.9994 23.3737 59.9995 30.001C59.9995 36.6284 54.6269 42.001 47.9995 42.001H7.99951L7.5874 41.9902C3.36073 41.7758 -0.000360465 38.2809 -0.000488281 34.001C-0.000488281 29.5827 3.58123 26.001 7.99951 26.001C9.47239 26.001 10.8514 26.4004 12.0366 27.0947C12.0122 26.7333 11.9995 26.3686 11.9995 26.001C11.9995 17.1644 19.163 10.001 27.9995 10.001Z" fill="url(#paint0_linear_5_226)"/>
<defs>
<linearGradient id="paint0_linear_5_226" x1="-3.75049" y1="10.001" x2="73.2497" y2="42.0008" gradientUnits="userSpaceOnUse">
<stop stop-color="white"/>
<stop offset="1" stop-color="#E0E0E0"/>
</linearGradient>
</defs>
</svg>
