<svg width="10" height="17" viewBox="0 0 10 17" fill="none" xmlns="http://www.w3.org/2000/svg">
<path d="M3.20272 11.1106C2.9965 10.312 2.91917 9.66027 2.97073 9.15548C3.02965 8.65068 3.19536 8.22877 3.46786 7.88973C3.74037 7.55068 4.10493 7.23048 4.56156 6.92911C5.20968 6.49212 5.64421 6.13425 5.86516 5.85548C6.09348 5.56918 6.20763 5.24521 6.20763 4.88356C6.20763 4.35616 6.02351 3.96438 5.65526 3.70822C5.28701 3.44452 4.74568 3.31267 4.03128 3.31267C3.47154 3.31267 2.96704 3.39555 2.51778 3.5613C2.06852 3.71952 1.61925 3.94178 1.16999 4.22808L0.451904 1.52706C0.643394 1.34623 0.94904 1.15788 1.36884 0.961986C1.79601 0.758562 2.3042 0.589041 2.89339 0.453425C3.48259 0.317808 4.11966 0.25 4.80461 0.25C5.77678 0.25 6.64585 0.411986 7.41181 0.735959C8.18513 1.05993 8.79642 1.51952 9.24568 2.11473C9.70231 2.7024 9.93063 3.39555 9.93063 4.19418C9.93063 4.6613 9.84593 5.09075 9.67654 5.48253C9.51451 5.87431 9.242 6.26233 8.85902 6.64657C8.48341 7.02329 7.97891 7.4339 7.34552 7.87842C6.91835 8.17226 6.60534 8.45103 6.40649 8.71472C6.20763 8.97842 6.09348 9.29486 6.06402 9.66404C6.04192 10.0257 6.07138 10.5079 6.15239 11.1106H3.20272ZM4.74937 16.75C4.18963 16.75 3.70354 16.5692 3.2911 16.2075C2.87866 15.8384 2.67244 15.3486 2.67244 14.7384C2.67244 14.324 2.76451 13.9661 2.94863 13.6647C3.14012 13.3634 3.39421 13.1298 3.71091 12.964C4.0276 12.7983 4.37375 12.7154 4.74937 12.7154C5.31647 12.7154 5.80256 12.9 6.20763 13.2692C6.61271 13.6308 6.81524 14.1205 6.81524 14.7384C6.81524 15.1527 6.7195 15.5106 6.52801 15.812C6.34388 16.1134 6.09348 16.3431 5.77678 16.5014C5.46745 16.6671 5.12498 16.75 4.74937 16.75Z" fill="#E9E9F3"/>
</svg>
