<svg width="42" height="42" viewBox="0 0 42 42" fill="none" xmlns="http://www.w3.org/2000/svg">
<path d="M25.2 8C25.2 6.41775 25.6926 4.87103 26.6156 3.55544C27.5386 2.23984 28.8505 1.21446 30.3854 0.608963C31.9203 0.0034624 33.6093 -0.154964 35.2387 0.153718C36.8682 0.4624 38.3649 1.22433 39.5396 2.34315C40.7144 3.46197 41.5144 4.88743 41.8385 6.43928C42.1627 7.99113 41.9963 9.59966 41.3605 11.0615C40.7248 12.5233 39.6481 13.7727 38.2667 14.6518C36.8854 15.5308 35.2613 16 33.5999 16L33.5999 14C34.846 14 36.064 13.6481 37.1 12.9888C38.1361 12.3295 38.9436 11.3925 39.4204 10.2961C39.8972 9.19975 40.022 7.99335 39.7789 6.82946C39.5358 5.66557 38.9358 4.59648 38.0547 3.75736C37.1737 2.91824 36.0511 2.3468 34.829 2.11529C33.6069 1.88378 32.3402 2.0026 31.189 2.45672C30.0379 2.91085 29.0539 3.67988 28.3617 4.66658C27.6694 5.65327 27.3 6.81331 27.3 8H25.2Z" fill="white"/>
<path d="M25.2 35C25.2 36.3845 25.631 37.7378 26.4387 38.889C27.2463 40.0401 28.3942 40.9373 29.7372 41.4672C31.0803 41.997 32.5581 42.1356 33.9839 41.8655C35.4096 41.5954 36.7193 40.9287 37.7472 39.9497C38.7751 38.9708 39.4751 37.7235 39.7587 36.3656C40.0423 35.0078 39.8968 33.6003 39.3405 32.3212C38.7842 31.0421 37.8421 29.9489 36.6334 29.1797C35.4247 28.4105 34.0036 28 32.5499 28L32.5499 29.995C33.5893 29.995 34.6054 30.2885 35.4696 30.8385C36.3338 31.3885 37.0074 32.1701 37.4052 33.0847C37.8029 33.9992 37.907 35.0056 37.7042 35.9764C37.5014 36.9473 37.0009 37.8391 36.266 38.5391C35.531 39.239 34.5946 39.7157 33.5752 39.9088C32.5558 40.1019 31.4991 40.0028 30.5389 39.624C29.5786 39.2452 28.7578 38.6037 28.1804 37.7806C27.6029 36.9576 27.2947 35.9899 27.2947 35H25.2Z" fill="white"/>
<line x1="7.3501" y1="29" x2="32.5501" y2="29" stroke="white" stroke-width="2"/>
<line y1="15" x2="33.6" y2="15" stroke="white" stroke-width="2"/>
<line x1="7.3501" y1="22" x2="38.8501" y2="22" stroke="white" stroke-width="2"/>
</svg>
